<svg width="640" height="480" viewBox="0 0 640 480" fill="none" xmlns="http://www.w3.org/2000/svg">
  <defs>
    <linearGradient id="bg" x1="64" y1="40" x2="560" y2="440" gradientUnits="userSpaceOnUse">
      <stop stop-color="#E9F9E6" />
      <stop offset="1" stop-color="#FFFFFF" />
    </linearGradient>
    <pattern id="dots" width="14" height="14" patternUnits="userSpaceOnUse">
      <circle cx="2" cy="2" r="1.25" fill="#BFEAB6" />
    </pattern>
  </defs>

  <rect x="24" y="24" width="592" height="432" rx="36" fill="url(#bg)" />
  <rect x="24" y="24" width="592" height="432" rx="36" fill="url(#dots)" opacity="0.25" />
  <rect x="24" y="24" width="592" height="432" rx="36" stroke="#39B54A" stroke-width="4" />

  <g opacity="0.85">
    <path d="M256 152c0-22.091 17.909-40 40-40h48c22.091 0 40 17.909 40 40v176c0 22.091-17.909 40-40 40h-48c-22.091 0-40-17.909-40-40V152z" fill="#39B54A" fill-opacity="0.12" stroke="#39B54A" stroke-width="6"/>
    <path d="M304 136h32" stroke="#39B54A" stroke-width="6" stroke-linecap="round"/>
    <path d="M304 344h32" stroke="#39B54A" stroke-width="6" stroke-linecap="round"/>
    <circle cx="320" cy="240" r="44" fill="#39B54A" fill-opacity="0.12" stroke="#39B54A" stroke-width="6"/>
  </g>

  <text x="320" y="428" text-anchor="middle" font-family="system-ui, -apple-system, Segoe UI, Roboto, Arial, sans-serif" font-size="22" fill="#1F3B73" opacity="0.85">
    Category image
  </text>
</svg>
