<svg width="68" height="68" viewBox="0 0 68 68" fill="none" xmlns="http://www.w3.org/2000/svg">
<path d="M23.0712 12.1428C21.6361 12.1428 20.215 12.4255 18.889 12.9747C17.5631 13.5239 16.3584 14.3289 15.3436 15.3437C14.3287 16.3585 13.5237 17.5633 12.9745 18.8892C12.4253 20.2151 12.1426 21.6362 12.1426 23.0714C12.1426 24.5066 12.4253 25.9277 12.9745 27.2536C13.5237 28.5795 14.3287 29.7842 15.3436 30.7991C16.3584 31.8139 17.5631 32.6189 18.889 33.1681C20.215 33.7173 21.6361 34 23.0712 34C25.9697 34 28.7494 32.8486 30.7989 30.7991C32.8484 28.7496 33.9998 25.9698 33.9998 23.0714C33.9998 20.173 32.8484 17.3932 30.7989 15.3437C28.7494 13.2942 25.9697 12.1428 23.0712 12.1428ZM15.7855 23.0714C15.7855 22.1146 15.974 21.1672 16.3401 20.2833C16.7062 19.3993 17.2429 18.5962 17.9194 17.9196C18.596 17.2431 19.3992 16.7064 20.2831 16.3403C21.167 15.9741 22.1144 15.7857 23.0712 15.7857C24.028 15.7857 24.9754 15.9741 25.8593 16.3403C26.7433 16.7064 27.5465 17.2431 28.223 17.9196C28.8995 18.5962 29.4362 19.3993 29.8023 20.2833C30.1685 21.1672 30.3569 22.1146 30.3569 23.0714C30.3569 25.0037 29.5893 26.8568 28.223 28.2232C26.8567 29.5895 25.0035 30.3571 23.0712 30.3571C21.1389 30.3571 19.2858 29.5895 17.9194 28.2232C16.5531 26.8568 15.7855 25.0037 15.7855 23.0714ZM48.5712 17C46.3169 17 44.1549 17.8955 42.5608 19.4896C40.9668 21.0836 40.0712 23.2456 40.0712 25.5C40.0712 27.7543 40.9668 29.9163 42.5608 31.5104C44.1549 33.1044 46.3169 34 48.5712 34C50.8256 34 52.9876 33.1044 54.5816 31.5104C56.1757 29.9163 57.0712 27.7543 57.0712 25.5C57.0712 23.2456 56.1757 21.0836 54.5816 19.4896C52.9876 17.8955 50.8256 17 48.5712 17ZM43.7141 25.5C43.7141 24.2118 44.2258 22.9763 45.1367 22.0654C46.0476 21.1546 47.283 20.6428 48.5712 20.6428C49.8594 20.6428 51.0948 21.1546 52.0057 22.0654C52.9166 22.9763 53.4284 24.2118 53.4284 25.5C53.4284 26.7882 52.9166 28.0236 52.0057 28.9345C51.0948 29.8454 49.8594 30.3571 48.5712 30.3571C47.283 30.3571 46.0476 29.8454 45.1367 28.9345C44.2258 28.0236 43.7141 26.7882 43.7141 25.5ZM4.85693 44.3214C4.85693 42.8722 5.43263 41.4823 6.45739 40.4576C7.48214 39.4328 8.872 38.8571 10.3212 38.8571H35.8212C37.2704 38.8571 38.6603 39.4328 39.6851 40.4576C40.7098 41.4823 41.2855 42.8722 41.2855 44.3214V45.611C41.2836 45.8075 41.2699 46.0038 41.2442 46.1987C41.1895 46.6997 41.1003 47.1963 40.9771 47.685C40.5748 49.2795 39.859 50.7779 38.8715 52.0928C36.4089 55.3787 31.7121 58.2857 23.0712 58.2857C14.4304 58.2857 9.73351 55.3787 7.27093 52.0928C6.28428 50.7777 5.56934 49.2793 5.16779 47.685C5.00885 47.0502 4.90726 46.4024 4.86422 45.7494L4.85693 45.611V44.3214ZM8.49979 45.5235V45.5672L8.52165 45.8101C8.54593 46.0384 8.5945 46.3808 8.70136 46.801C8.98451 47.9243 9.48807 48.9801 10.1828 49.9071C11.8196 52.0855 15.3192 54.6428 23.0712 54.6428C30.8232 54.6428 34.3228 52.0855 35.9572 49.9071C36.8072 48.7754 37.2298 47.6437 37.4386 46.801C37.5411 46.3963 37.6085 45.9835 37.6402 45.5672L37.6426 45.5235V44.3214C37.6426 43.8383 37.4507 43.375 37.1092 43.0334C36.7676 42.6919 36.3043 42.5 35.8212 42.5H10.3212C9.83815 42.5 9.37486 42.6919 9.03327 43.0334C8.69169 43.375 8.49979 43.8383 8.49979 44.3214V45.5235ZM41.5284 52.5057C43.4057 53.0812 45.7225 53.4285 48.5664 53.4285C55.2935 53.4285 59.0529 51.4954 61.0954 49.164C61.9108 48.2405 62.5157 47.1508 62.8682 45.9704C63.006 45.4934 63.0947 45.0035 63.1329 44.5084L63.1378 44.3942V44.3214C63.1378 42.8722 62.5621 41.4823 61.5373 40.4576C60.5126 39.4328 59.1227 38.8571 57.6735 38.8571H41.5138C42.4706 39.8552 43.1701 41.106 43.5004 42.5H57.6759C58.1548 42.4999 58.6145 42.6885 58.9554 43.0248C59.2963 43.3612 59.491 43.8183 59.4974 44.2971L59.4852 44.4088C59.461 44.592 59.4228 44.773 59.3711 44.9504C59.1661 45.6217 58.8182 46.2406 58.3511 46.7645C57.2072 48.076 54.5941 49.7857 48.5664 49.7857C46.2811 49.7857 44.4864 49.5404 43.0754 49.1615C42.7033 50.3372 42.1835 51.4609 41.5284 52.5057Z" fill="#72CB1A"/>
</svg>
