<svg width="100" height="100" viewBox="0 0 100 100" fill="none" xmlns="http://www.w3.org/2000/svg">
<path d="M24.8086 67.4242C23.4378 67.4242 22.2942 66.9576 21.3777 66.0242C20.4612 65.0909 20.002 63.9253 20 62.5273V29.897C20 28.501 20.4592 27.3364 21.3777 26.403C22.2962 25.4697 23.4388 25.002 24.8056 25H68.7554C70.1241 25 71.2668 25.4677 72.1833 26.403C73.0998 27.3384 73.559 28.503 73.561 29.897V43.7636H22.9756V62.5303C22.9756 62.9949 23.166 63.4222 23.5469 63.8121C23.9278 64.202 24.3474 64.396 24.8056 64.3939H50.3274V67.4242H24.8086ZM22.9756 36.5394H70.5854V29.897C70.5854 29.4303 70.3949 29.002 70.014 28.6121C69.6332 28.2222 69.2136 28.0283 68.7554 28.0303H24.8056C24.3493 28.0303 23.9298 28.2242 23.5469 28.6121C23.1641 29 22.9736 29.4283 22.9756 29.897V36.5394ZM69.0976 75V65.9091H60.1707V62.8788H69.0976V53.7879H72.0732V62.8788H81V65.9091H72.0732V75H69.0976Z" fill="#72CB1A"/>
</svg>
