<svg width="1200" height="600" viewBox="0 0 1200 600" fill="none" xmlns="http://www.w3.org/2000/svg">
  <defs>
    <linearGradient id="g3" x1="0" y1="0" x2="1200" y2="0" gradientUnits="userSpaceOnUse">
      <stop stop-color="#EAF2FF"/>
      <stop offset="0.45" stop-color="#FFFFFF"/>
      <stop offset="1" stop-color="#E9F9E6"/>
    </linearGradient>
  </defs>

  <rect width="1200" height="600" rx="44" fill="url(#g3)"/>
  <g opacity="0.14">
    <path d="M140 520c120-150 250-170 380-70 160 120 310 90 520-60" stroke="#1F3B73" stroke-width="18"/>
    <path d="M60 420c170-120 320-120 470 10 160 140 360 140 640-50" stroke="#39B54A" stroke-width="18"/>
  </g>

  <text x="70" y="160" font-family="system-ui, -apple-system, Segoe UI, Roboto, Arial, sans-serif" font-size="52" font-weight="800" fill="#1F3B73">
    >28=:8 =0 A:;04V
  </text>
  <text x="70" y="222" font-family="system-ui, -apple-system, Segoe UI, Roboto, Arial, sans-serif" font-size="30" fill="#1F3B73" opacity="0.75">
    (284:0 2V4?@02:0 B0 ?V4B@8<:0 <5=5465@0
  </text>

  <g opacity="0.95">
    <rect x="720" y="110" width="420" height="380" rx="40" fill="#FFFFFF" stroke="#39B54A" stroke-opacity="0.30" stroke-width="6"/>
    <path d="M790 380h280" stroke="#1F3B73" stroke-opacity="0.22" stroke-width="12" stroke-linecap="round"/>
    <path d="M790 330h220" stroke="#39B54A" stroke-opacity="0.70" stroke-width="12" stroke-linecap="round"/>
    <path d="M790 280h160" stroke="#1F3B73" stroke-opacity="0.22" stroke-width="12" stroke-linecap="round"/>
    <rect x="790" y="170" width="140" height="90" rx="18" fill="#39B54A" fill-opacity="0.14" stroke="#39B54A" stroke-width="6"/>
    <rect x="950" y="170" width="160" height="90" rx="18" fill="#1F3B73" fill-opacity="0.06" stroke="#1F3B73" stroke-opacity="0.18" stroke-width="6"/>
  </g>
</svg>
