<svg xmlns="http://www.w3.org/2000/svg" viewBox="0 0 13.977972 20.346056" aria-hidden="true">
  <path
    d="m13.369594 11.68043-6.736523-1.52446c-2.0077575-.45436-3.2672403-2.45037-2.8130169-4.45826.454488-2.00789 2.4505047-3.26711 4.4582622-2.81289 2.0078897.45439 3.2672407 2.45038 2.8129837 4.45813-.227608 1.00525-.841672 1.82212-1.6501399 2.33101-.0001323 0-.00209.002-.00284.002-.023778.0171-.039158.0448-.039158.0761 0 .0438.030229.0806.071074.0904.0001323.00013 2.9965719.67773 2.9971009.67773.07131.0162.145322-.0113.189144-.0692.000232-.00053.000132-.00013.000132-.00013.8255-1.09234 1.321363-2.4553 1.321363-3.9295 0-3.47173-2.712376-6.30892-6.1336045-6.51043-.030498-.002-.2159049-.009-.278545-.01-1.5147727-.0238-3.0506128.41055-4.3861765 1.34588-3.37279053 2.36161-4.1922501 7.01004-1.8308934 10.38272l5.993034 8.55903c.025598.0349.066807.0575.1130432.0575.046633 0 .087974-.023.1134401-.0581 0 0 5.8850281-8.39266 5.8855571-8.39342.01498-.0222.02391-.0492.02391-.0781 0-.0664-.04614-.12197-.108148-.13616"
    fill="#fabc26"
  />
</svg>
